<svg xmlns="http://www.w3.org/2000/svg" viewBox="0 0 595.28 297.64"><polygon points="523.22 103.06 518.85 162.67 529.49 162.67 524.31 103.06 523.22 103.06" fill="#1d1d1d"/><path d="M205.2,104.43h-2.59V132.8H204c2.82,0,4.89-.53,6.21-1.57a7.48,7.48,0,0,0,2.59-4.5,43.59,43.59,0,0,0,.61-8.39q0-7.36-1.63-10.64C210.66,105.52,208.47,104.43,205.2,104.43Z" style="fill:#1d1d1d"/><path d="M0,0V297.64H595.28V0ZM40.14,99.42H76.49l5.82,10H57.64l31.79,55.43,12.34-21.44,5.83,10.15L89.43,185.13Zm74.47,41.34-5.76-10,12.28-21.35H96.57l-5.75-10h47.57Zm2.92,7.82,12.8-22.24H142l-24.47,42.54L93.06,126.34h11.68Zm-6.73-23.45H85.12L98,147.45l-5.76,10L67.86,115.15h48.68Zm6,75.65L99.21,170.16,105,160l11.78,20.46,31.79-55.35H125.06l5.83-10h35.22Zm32-86.84H137.3l12-20.87H85.75l12,20.87H86.22L68.47,83.08h98.12Zm82.41,31.13q-5.31,8.88-19.09,8.87h-9.55v46.38H179.56V83.15h31q14.05,0,20,9.07t6,26.53Q236.57,136.21,231.25,145.07ZM268,200.32H245.35V83.15H268Zm60.22-94.67H314.3v94.67H290.84V105.65H276.92V83.15h51.29Zm59.86,0H374.16v94.67H350.69V105.65H336.78V83.15h51.29Zm31.44,94.67H396.86V83.15h22.65ZM486.63,172q0,29.46-29.6,29.46-12.82,0-20.53-8t-7.7-22.1v-54q0-17.46,6.95-26.33t21.83-8.86q12.94,0,20.87,7.09t7.91,20.46V129.8H463V112.47q0-5-1.23-7c-.81-1.28-2.22-1.91-4.22-1.91s-3.53.73-4.3,2.18a14,14,0,0,0-1.16,6.41V171c0,3.09.45,5.34,1.37,6.75a4.53,4.53,0,0,0,4.09,2.12q5.44,0,5.45-8.87V149.85h23.6Zm46.27,28.37-1.63-19H517.08l-1.36,19H492.94L504.26,83.15H544l11.19,117.17Z" fill="#1d1d1d"/></svg>