<?xml version="1.0" encoding="utf-8"?>
<svg xmlns="http://www.w3.org/2000/svg" viewBox="0 0 150 40"><path d="M40.6 2.9h9c2.7 0 4.7.9 5.8 2.6 1.2 1.8 1.7 4.3 1.7 7.7 0 3.4-.5 5.9-1.5 7.7-1 1.7-2.9 2.6-5.6 2.6h-2.8V37h-6.7V2.9zm7.1 14.5c.8 0 1.4-.2 1.8-.5.4-.3.7-.8.8-1.3.1-.8.2-1.6.2-2.4 0-1.4-.2-2.5-.5-3.1-.3-.6-1-1-1.9-1h-.8v8.3h.4zm12.1 19.7V2.9h6.6V37h-6.6zm13.2 0V9.5h-4V2.9h14.9v6.6h-4.1v27.6H73zm17.5 0V9.5h-4.1V2.9h14.9v6.6h-4.1v27.6h-6.7zm13.4 0V2.9h6.6V37h-6.6zm11.5-2.1c-1.5-1.6-2.2-3.7-2.2-6.4V12.9c0-3.4.7-5.9 2-7.7 1.3-1.7 3.5-2.6 6.4-2.6 2.5 0 4.5.7 6.1 2.1 1.5 1.4 2.3 3.4 2.3 6v5.9h-6.8v-5c0-1-.1-1.7-.4-2-.2-.4-.6-.6-1.2-.6s-1 .2-1.3.6c-.3.6-.4 1.2-.3 1.9v17.1c0 .9.1 1.6.4 2 .3.4.7.6 1.2.6 1.1 0 1.6-.9 1.6-2.6v-6.2h6.9v6.5c0 5.7-2.9 8.6-8.6 8.6-2.6-.1-4.6-.9-6.1-2.5zm16.5 2.1L135.2 3h11.6l3.3 34.1h-6.5l-.5-5.5H139l-.4 5.5h-6.7zm7.5-11h3.1L141 8.7h-.3l-1.3 17.4z" fill="#ffffff"/><path d="M22.3 12.3l-1.7 2.9h-7.5l3.8 6.5-1.7 2.9-7.1-12.3h14.2zm2.4 2.9h6.9l-9.3 16.1-3.4-6-1.7 3 5.1 8.9 14.4-24.9H26.4l-1.7 2.9zm-5.1 8.2l-5.3 9.2L0 7.7h10.6l1.7 2.9H5.1l9.3 16.1 3.6-6.2 1.6 2.9zm4-12.8L20 16.8l1.7 2.9 6.9-12H14.8l1.7 2.9h7.1zm-8.2 4.9h3.4l3.7 6.5 3.7-6.5h3.4l-7.1 12.4-7.1-12.4zm1.4-3.6l-3.5-6.1h18.5l-3.5 6.1h3.4l5.2-9H8.3l5.2 9h3.3z" fill="#cc151a"/></svg>