<?xml version="1.0" encoding="utf-8"?>
<svg xmlns="http://www.w3.org/2000/svg" viewBox="0 0 2902.7 2902.7"><path d="M1738.5 867.8L1612.1 1086h-558.3l280.3 487-126.4 218.2-530.6-923.4h1061.4zm186.1 218.3h512.3l-691.5 1206.1-257.3-445.7-126.4 220.5 383.7 666.2L2820.6 867.8H2051l-126.4 218.3zM1543.2 1704l-395.1 689.2L72.9 525.5h792.6l126.4 218.2H454.3l693.8 1208.4 268.8-466.4 126.3 218.3zm296.4-962.5l-268.8 466.4 126.4 218.2 519.2-900.6H1178l126.4 218.2h535.3l-.1-2.2zm-613.4 369.8h255l278 484.7 278-484.7h255l-533 928.1-533-928.1zm103.4-271.1l-261.9-454.9H2453l-261.9 454.9h252.7l386-670.8H690.9l386 673.1h252.7v-2.3z" fill="#1d1d1d"/></svg>