<svg xmlns="http://www.w3.org/2000/svg" viewBox="0 0 595.28 595.28"><path d="M0 0v595.28h595.28V0zm88.63 157.11h120.16l19.24 33h-81.56l105.11 183.24 40.78-70.89L311.65 336l-60.07 104.43zm246.18 136.67l-19-33.09 40.6-70.58h-81.24l-19-33h157.27zm9.66 25.84l42.29-73.51h38.6l-80.89 140.6-80.89-140.6h38.6zm-22.26-77.51h-84.88l42.44 73.77-19 33.09-80.5-139.86h160.92zm19.9 250.06L283.89 391l19.3-33.54 38.92 67.65 105.1-183h-77.84l19.25-33h116.44zM448 205.11h-38.17l39.7-69H239.41l39.7 69H241l-58.69-102h324.34z" fill="#1d1d1d"/></svg>