<?xml version="1.0" encoding="utf-8"?>
<svg xmlns="http://www.w3.org/2000/svg" viewBox="0 0 200 35"><path d="M22.4 9.7l-1.7 2.9h-7.5l3.8 6.5-1.7 2.9L8.1 9.7h14.3zm2.5 2.9h6.9l-9.3 16.2-3.5-6-1.7 3 5.2 9L36.9 9.7H26.6l-1.7 2.9zM19.8 21l-5.3 9.3L0 5.1h10.7L12.4 8H5.1l9.3 16.2 3.6-6.3 1.8 3.1zm3.9-13l-3.6 6.3 1.7 2.9 7-12.1H14.9L16.5 8h7.2zm-8.2 5h3.4l3.7 6.5 3.8-6.5h3.4l-7.2 12.5L15.5 13zm1.4-3.6l-3.5-6.1H32l-3.5 6.1h3.4l5.2-9H8.3l5.2 9h3.4z" fill="#cc151a"/><path d="M40.9.3H50c2.7 0 4.7.9 5.9 2.7s1.7 4.4 1.8 7.8c0 3.4-.5 6-1.6 7.7-1 1.7-2.9 2.6-5.6 2.6h-2.8v13.6h-6.8V.3zM48 14.9c.8 0 1.4-.2 1.8-.5.4-.3.7-.8.8-1.3.1-.8.2-1.6.2-2.5 0-1.4-.2-2.5-.5-3.1s-1-1-1.9-1h-.8v8.3h.4v.1zm12.1 19.8V.3h6.6v34.3h-6.6v.1zm13.4 0V6.9h-4.1V.3h15v6.6h-4.1v27.7l-6.8.1zm17.5 0V6.9h-4.1V.3h15v6.6h-4.1v27.7l-6.8.1zm13.5 0V.3h6.6v34.3h-6.6v.1zm11.7-2.1c-1.5-1.6-2.3-3.7-2.3-6.5V10.3c0-3.4.7-6 2-7.7s3.5-2.6 6.4-2.6c2.5 0 4.6.7 6.1 2.1s2.3 3.4 2.3 6V14h-6.9V8.9c0-1-.1-1.7-.4-2.1-.2-.4-.7-.6-1.2-.6s-1 .2-1.3.6c-.3.6-.4 1.2-.3 1.9v17.2c0 .9.1 1.6.4 2s.7.6 1.2.6c1.1 0 1.6-.9 1.6-2.6v-6.2h6.9v6.5c0 5.8-2.9 8.6-8.7 8.6-2.3.2-4.3-.6-5.8-2.2zm16.5 2.1L136 .3h11.6l3.3 34.3h-6.5l-.5-5.6h-4.2l-.4 5.6h-6.6v.1zm7.6-11.1h3.1l-1.5-17.5h-.3l-1.3 17.5zm23.5 11.1V24.4h2.1V28h1v-3.7h2.1v10.3h-2.1V30h-1v4.7h-2.1zm6.6-.7c-.4-.5-.6-1.2-.6-2.1V27c0-.9.2-1.6.6-2 .4-.5 1.1-.7 1.9-.7s1.5.2 1.9.7c.4.5.6 1.1.6 2v4.9c0 .9-.2 1.6-.6 2.1-.4.5-1.1.8-1.9.8s-1.5-.3-1.9-.8zm2.2-1.4c.1-.2.1-.4.1-.7v-5c0-.2 0-.4-.1-.5-.1-.1-.2-.2-.4-.2-.3 0-.5.3-.5.8v5c0 .3 0 .5.1.7.1.2.2.2.4.2s.4-.1.4-.3zm3.5 1.5c-.4-.5-.6-1.2-.6-2.2v-1h2v1.3c0 .5.2.8.5.8.2 0 .3-.1.4-.2s.1-.3.1-.5c0-.3 0-.6-.1-.8l-.3-.6c-.1-.1-.3-.4-.7-.7l-.9-.9c-.7-.7-1-1.4-1-2.2 0-.9.2-1.5.6-2 .4-.5 1-.7 1.8-.7.9 0 1.6.2 2 .7.4.5.6 1.3.6 2.3h-2.1v-.7c0-.1 0-.2-.1-.3-.1-.1-.2-.1-.3-.1-.2 0-.3 0-.4.1s-.1.2-.1.4c0 .3.2.7.6 1l1.2 1.2c.3.3.5.5.7.8.2.2.3.5.4.9.1.3.2.7.2 1.2 0 1-.2 1.8-.6 2.3-.4.5-1 .8-1.8.8-1.1-.2-1.7-.5-2.1-.9zm6 .6v-8.3h-1.2v-2h4.5v2h-1.2v8.3h-2.1zm3.7 0V24.4h2v10.3h-2zm2.8 0V24.4h2.1l.9 4.9v-4.9h2v10.3h-2l-1-5.2v5.2h-2zm6.5-.7c-.4-.5-.5-1.3-.5-2.4v-4.4c0-1 .2-1.7.6-2.2s1.1-.7 1.9-.7c.7 0 1.2.1 1.6.4.4.3.6.7.8 1.2.1.5.2 1.2.2 2h-2V27c0-.2 0-.4-.1-.6-.1-.1-.2-.2-.4-.2-.4 0-.6.3-.6.8v5c0 .3 0 .5.1.7.1.2.2.2.4.2s.3-.1.4-.2c.1-.2.1-.4.1-.7v-1.5h-.6v-1.8h2.5v6h-.8l-.3-.9c-.4.6-.9 1-1.7 1-.7 0-1.3-.3-1.6-.8z" fill="#1d1d1d"/></svg>