<?xml version="1.0" encoding="utf-8"?>
<svg version="1.1" xmlns="http://www.w3.org/2000/svg" x="0" y="0" viewBox="0 0 206 70" xml:space="preserve"><path d="M78.9 30.1h10.4c3.1 0 5.4 1 6.7 3 1.4 2.1 2 5 2 8.9s-.6 6.8-1.7 8.9c-1.2 2-3.3 3-6.5 3h-3.2v15.6h-7.7V30.1zm8.2 16.7c.9 0 1.6-.2 2.1-.6s.8-.9.9-1.5c.1-.9.2-1.8.2-2.8 0-1.6-.2-2.9-.6-3.6-.3-.7-1.2-1.2-2.2-1.2h-.9v9.6c0 .1.5.1.5.1zm14 22.7V30.1h7.6v39.3h-7.6v.1zm15.2 0V37.7h-4.6v-7.6h17.2v7.6h-4.7v31.8h-7.9zm20.2 0V37.7h-4.7v-7.6H149v7.6h-4.7v31.8h-7.8zm15.4 0V30.1h7.6v39.3h-7.6v.1zm13.3-2.4c-1.7-1.8-2.5-4.3-2.5-7.4V41.6c0-3.9.8-6.8 2.3-8.9 1.5-2 4-3 7.4-3 2.9 0 5.2.8 7 2.4 1.7 1.6 2.7 3.9 2.7 6.9v6.8h-7.8V40c0-1.2-.1-2-.5-2.3-.2-.5-.7-.7-1.4-.7s-1.2.2-1.5.7c-.3.7-.5 1.4-.3 2.2v19.7c0 1 .1 1.8.5 2.3.3.5.8.7 1.4.7 1.3 0 1.8-1 1.8-3v-7.2h8v7.5c0 6.6-3.3 9.9-9.9 9.9-3.2.1-5.5-.8-7.2-2.7zm19 2.4l3.8-39.3h13.4l3.8 39.3h-7.5l-.6-6.3h-4.7l-.5 6.3h-7.7zm8.7-12.6h3.6l-1.7-20.1h-.3l-1.6 20.1z" fill="#1d1d1d"/><path fill="#cc151a" d="M46.1 19.1L42.6 25H27.4l7.7 13.2-3.5 5.9-14.4-25h28.9zm4.8 5.9h14L46.1 57.7l-6.9-12.2-3.5 6.1 10.4 18.1 29.2-50.6H54.4L50.9 25zM40.6 41.6L29.8 60.3.8 9.7h21.5l3.5 5.9H11.1L30 48.3l7.3-12.6 3.3 5.9zm8.1-26l-7.3 12.6 3.5 5.9 14-24.4h-28l3.5 5.9h14.3zm-16.6 10H39l7.5 13.2L54 25.6h6.9L46.5 50.8 32.1 25.6zm2.8-7.3L27.8 5.9h37.6l-7.1 12.4h6.9L75.7 0H17.6l10.6 18.3h6.7zM112.3 18.2c-.2-.1-.4-.3-.6-.6v-5.4c.1-.3.3-.6.6-.7.2-.2.5-.3.9-.3.6 0 1 .3 1.3 1 .3.7.4 1.6.4 2.7v.2c0 1-.1 1.9-.4 2.5-.3.6-.7.9-1.3.9-.4-.1-.7-.2-.9-.3zm35.8-7c-.5 0-.9.2-1.1.7-.2.4-.4 1-.5 1.8h2.8v-.3c0-.7-.1-1.2-.3-1.6-.1-.4-.4-.6-.9-.6zm-24.4 0c-.6 0-1.1.3-1.3 1-.3.6-.4 1.5-.4 2.5v.2c0 1.1.1 1.9.4 2.5.3.6.7.9 1.4.9.6 0 1-.3 1.3-.9.3-.6.4-1.5.4-2.5v-.2c0-1.1-.1-1.9-.4-2.5-.3-.7-.7-1-1.4-1zm40.9 0c-.5 0-.9.2-1.1.7-.2.4-.4 1-.5 1.8h2.8v-.3c0-.7-.1-1.2-.3-1.6-.1-.4-.4-.6-.9-.6zm10.9.3c-.3-.2-.5-.3-.8-.3-.6 0-1 .3-1.3 1-.3.7-.4 1.6-.4 2.7v.2c0 1 .1 1.9.4 2.4.3.6.7.9 1.3.9.3 0 .6-.1.9-.2.3-.2.5-.4.6-.7v-5.3c-.3-.3-.5-.6-.7-.7zM205.2 0v9H202l-1.7 6.9h-.1L198.8 9h-3.2l3.5 11.6-.3.9c-.1.4-.3.7-.5.9-.2.2-.6.4-1 .4h-.4l-.3 2h-84.8v-5.2c.3.4.6.7 1 .9.4.2.8.3 1.3.3 1.2 0 2.2-.5 2.8-1.6.7-1 1-2.4 1-4.1v-.2c0-1.8-.3-3.3-1-4.4s-1.6-1.7-2.9-1.7c-.5 0-1 .1-1.4.4-.4.2-.7.6-1 1l-.2-1.2h-2.7v15.7H78.6l6.5-11.4H74.6L82.3 0h122.9zm-76.7 14.7c0-1.7-.4-3.1-1.3-4.2-.8-1.1-2-1.6-3.5-1.6s-2.7.5-3.5 1.6c-.8 1.1-1.2 2.5-1.2 4.2v.2c0 1.7.4 3.1 1.2 4.2.8 1.1 2 1.6 3.5 1.6s2.6-.5 3.5-1.6c.8-1.1 1.2-2.5 1.2-4.2v-.2zM142.6 9h-2.9l-1 6.4h-.1L137 9h-2l-1.7 6.4h-.1l-1-6.4h-2.9l2.4 11.5h2.5l1.7-6.1h.1l1.7 6.1h2.5L142.6 9zm9.7 5c0-1.6-.4-2.9-1.1-3.8s-1.8-1.4-3.1-1.4c-1.5 0-2.6.5-3.4 1.6-.8 1.1-1.2 2.5-1.2 4.2v.4c0 1.7.4 3 1.3 4 .8 1 2 1.6 3.5 1.6.8 0 1.5-.1 2.2-.4.7-.3 1.3-.6 1.7-.9l-.8-1.9c-.5.3-.9.5-1.3.7-.4.1-.9.2-1.5.2-.7 0-1.2-.3-1.6-.8-.3-.5-.5-1.2-.6-2h5.8V14zm7.2-5.1c-.1 0-.2-.1-.4-.1h-.4c-.4 0-.8.2-1.2.5-.3.3-.6.8-.8 1.4V9h-2.8v11.5h3v-7.9c.1-.3.3-.6.5-.7.2-.2.5-.3.8-.3h1l.3-2.7zm9.3 5.1c0-1.6-.4-2.9-1.1-3.8-.7-.9-1.8-1.4-3.1-1.4-1.5 0-2.6.5-3.4 1.6S160 13 160 14.7v.4c0 1.7.4 3 1.3 4 .8 1 2 1.6 3.5 1.6.8 0 1.5-.1 2.2-.4.7-.3 1.3-.6 1.7-.9l-.8-1.9c-.5.3-.9.5-1.3.7-.4.1-.9.2-1.5.2-.7 0-1.2-.3-1.6-.8-.3-.5-.5-1.2-.6-2h5.8V14zm10.3-10h-3v6.1c-.3-.4-.6-.7-1-.9s-.8-.3-1.2-.3c-1.2 0-2.2.6-2.9 1.7-.7 1.1-1 2.6-1 4.4v.2c0 1.7.3 3.1 1 4.1.7 1 1.6 1.6 2.8 1.6.5 0 1-.1 1.4-.4.4-.3.8-.6 1.1-1.1l.2 1.3h2.6V4zM195 14.8c0-1.8-.3-3.3-1-4.4-.7-1.1-1.6-1.6-2.9-1.6-.5 0-.9.1-1.3.3-.4.2-.7.5-1 .9V4h-3v16.6h2.6l.2-1.3c.3.5.6.9 1.1 1.1.4.3.9.4 1.4.4 1.3 0 2.2-.5 2.9-1.5.7-1 1-2.4 1-4.1v-.4zm-4.6-3.6c-.3 0-.6.1-.9.3-.3.2-.5.4-.6.7v5.3c.1.3.3.5.6.7.2.1.6.2.9.2.6 0 1.1-.3 1.3-.8.2-.6.3-1.4.3-2.5v-.2c0-1.2-.1-2.1-.4-2.7-.2-.7-.6-1-1.2-1zm9.7 13.1c-.2.2-.3.3-.5.4h5.7V9l-4 13.2c-.3.9-.7 1.6-1.2 2.1z"/></svg>