<?xml version="1.0" encoding="utf-8"?>
<svg xmlns="http://www.w3.org/2000/svg" viewBox="0 0 180 41.7"><path d="M26.7 11.6l-2 3.5h-8.9l4.5 7.8-2 3.5-8.6-14.8h17zm3 3.4h8.2L26.8 34.4l-4.2-7.2-2 3.6 6.2 10.7L44 11.6H31.7l-2 3.4zm-6.1 10l-6.3 11.1L0 6.1h12.8l2 3.5H6.1l11.1 19.3 4.3-7.5 2.1 3.6zm4.7-15.5L24 17.1l2 3.5 8.3-14.4H17.8l1.9 3.5c0-.2 8.6-.2 8.6-.2zm-9.8 6h4.1l4.4 7.8 4.5-7.8h4.1L27 30.4l-8.5-14.9zm1.7-4.3L16 3.9h22.2L34 11.2h4.1L44.3.5H9.9l6.2 10.7h4.1z" fill="#cc151a"/><path d="M48.8.4h10.9c3.2 0 5.6 1.1 7 3.2s2 5.2 2.1 9.3c0 4.1-.6 7.2-1.9 9.2-1.2 2-3.5 3.1-6.7 3.1h-3.3v16.2h-8.1V.4zm8.5 17.4c1 0 1.7-.2 2.1-.6.5-.4.8-1 1-1.6.1-1 .2-1.9.2-3 0-1.7-.2-3-.6-3.7s-1.2-1.2-2.3-1.2h-1v9.9h.5v.2zm14.4 23.6V.4h7.9v40.9h-7.9v.1zm16 0V8.2h-4.9V.4h17.9v7.9h-4.9v33l-8.1.1zm20.8 0V8.2h-4.9V.4h17.9v7.9h-4.9v33c.1 0-8.1.1-8.1.1zm16.2 0V.4h7.9v40.9h-7.9v.1zm13.9-2.5c-1.8-1.9-2.7-4.4-2.7-7.8V12.3c0-4.1.8-7.2 2.4-9.2 1.6-2 4.2-3.1 7.6-3.1 3 0 5.5.8 7.3 2.5 1.8 1.7 2.7 4.1 2.7 7.2v7h-8.2v-6.1c0-1.2-.1-2-.5-2.5-.2-.5-.8-.7-1.4-.7s-1.2.2-1.6.7c-.4.7-.5 1.4-.4 2.3v20.5c0 1.1.1 1.9.5 2.4s.8.7 1.4.7c1.3 0 1.9-1.1 1.9-3.1v-7.4h8.2v7.8c0 6.9-3.5 10.3-10.4 10.3-2.6.1-5-.8-6.8-2.7zm19.7 2.5l3.9-41H176l3.9 40.9h-7.8l-.6-6.7h-5l-.5 6.7h-7.9l.2.1zm9.1-13.2h3.7l-1.8-20.9h-.4l-1.5 20.9z" fill="#1d1d1d"/></svg>