<?xml version="1.0" encoding="utf-8"?>
<svg xmlns="http://www.w3.org/2000/svg" viewBox="0 0 120 120"><path d="M72.5 33.1L67 42.6H42.7l12.2 21.2-5.5 9.5-23.1-40.2h46.2zm8.1 9.5h22.3L72.8 95.1 61.6 75.7l-5.5 9.6 16.7 29 46.8-81.2H86.1l-5.5 9.5zM64 69.5l-17.2 30L0 18.2h34.5l5.5 9.5H16.6l30.2 52.6L58.5 60l5.5 9.5zm12.9-41.9L65.2 47.9l5.5 9.5 22.6-39.2H48.1l5.5 9.5h23.3zM50.2 43.7h11.1l12.1 21.1 12.1-21.1h11.1L73.4 84.1 50.2 43.7zm4.5-11.8L43.3 12.1h60.3L92.2 31.9h11L120 2.7H26.9L43.7 32h11z" fill="#cc151a"/></svg>